<svg width="22" height="22" viewBox="0 0 22 22" fill="none" xmlns="http://www.w3.org/2000/svg">
<path d="M18.29 2H3.98999C3.01245 2 2.22 2.79246 2.22 3.77V18.07C2.22 19.0475 3.01245 19.84 3.98999 19.84H18.29C19.2676 19.84 20.06 19.0475 20.06 18.07V3.77C20.06 2.79246 19.2676 2 18.29 2Z" fill="#FEF2F2"/>
<path d="M18.29 2H3.98999C3.01245 2 2.22 2.79246 2.22 3.77V18.07C2.22 19.0475 3.01245 19.84 3.98999 19.84H18.29C19.2676 19.84 20.06 19.0475 20.06 18.07V3.77C20.06 2.79246 19.2676 2 18.29 2Z" stroke="#423752" stroke-width="3" stroke-miterlimit="10"/>
<path d="M2.84 2.42969L19.57 19.2897" stroke="#423752" stroke-width="3" stroke-miterlimit="10"/>
<path d="M19.43 2.42969L2.70999 19.2897" stroke="#423752" stroke-width="3" stroke-miterlimit="10"/>
<path d="M18.29 2H3.98999C3.01245 2 2.22 2.79246 2.22 3.77V18.07C2.22 19.0475 3.01245 19.84 3.98999 19.84H18.29C19.2676 19.84 20.06 19.0475 20.06 18.07V3.77C20.06 2.79246 19.2676 2 18.29 2Z" stroke="#423752" stroke-width="3" stroke-miterlimit="10"/>
</svg>
