<svg width="22" height="22" viewBox="0 0 22 22" fill="none" xmlns="http://www.w3.org/2000/svg">
<path d="M18.07 2H3.76999C2.79245 2 2 2.79246 2 3.77V18.07C2 19.0475 2.79245 19.84 3.76999 19.84H18.07C19.0476 19.84 19.84 19.0475 19.84 18.07V3.77C19.84 2.79246 19.0476 2 18.07 2Z" fill="#FEF2F2"/>
<path d="M18.07 2H3.76999C2.79245 2 2 2.79246 2 3.77V18.07C2 19.0475 2.79245 19.84 3.76999 19.84H18.07C19.0476 19.84 19.84 19.0475 19.84 18.07V3.77C19.84 2.79246 19.0476 2 18.07 2Z" stroke="#423752" stroke-width="3" stroke-miterlimit="10"/>
<path d="M18.07 2H3.76999C2.79245 2 2 2.79246 2 3.77V18.07C2 19.0475 2.79245 19.84 3.76999 19.84H18.07C19.0476 19.84 19.84 19.0475 19.84 18.07V3.77C19.84 2.79246 19.0476 2 18.07 2Z" stroke="#423752" stroke-width="3" stroke-miterlimit="10"/>
<path d="M15.45 14.6396H6.39999" stroke="#423752" stroke-width="3" stroke-linecap="round" stroke-linejoin="round"/>
</svg>
