<svg width="21" height="22" viewBox="0 0 21 22" fill="none" xmlns="http://www.w3.org/2000/svg">
<path d="M17.68 2H3.38C2.40246 2 1.60999 2.79246 1.60999 3.77V18.07C1.60999 19.0475 2.40246 19.84 3.38 19.84H17.68C18.6575 19.84 19.45 19.0475 19.45 18.07V3.77C19.45 2.79246 18.6575 2 17.68 2Z" fill="#FEF2F2"/>
<path d="M17.68 2H3.38C2.40246 2 1.60999 2.79246 1.60999 3.77V18.07C1.60999 19.0475 2.40246 19.84 3.38 19.84H17.68C18.6575 19.84 19.45 19.0475 19.45 18.07V3.77C19.45 2.79246 18.6575 2 17.68 2Z" stroke="#423752" stroke-width="3" stroke-miterlimit="10"/>
<path d="M17.68 2H3.38C2.40246 2 1.60999 2.79246 1.60999 3.77V18.07C1.60999 19.0475 2.40246 19.84 3.38 19.84H17.68C18.6575 19.84 19.45 19.0475 19.45 18.07V3.77C19.45 2.79246 18.6575 2 17.68 2Z" stroke="#423752" stroke-width="3" stroke-miterlimit="10"/>
<path d="M15.05 7.88965H6V14.6396H15.05V7.88965Z" stroke="#423752" stroke-width="2.5" stroke-linecap="round" stroke-linejoin="round"/>
</svg>
