<svg width="150" height="150" viewBox="0 0 150 150" fill="none" xmlns="http://www.w3.org/2000/svg">
<path d="M121.875 121.875H28.125C25.6386 121.875 23.254 120.887 21.4959 119.129C19.7377 117.371 18.75 114.986 18.75 112.5V46.875C18.75 44.3886 19.7377 42.004 21.4959 40.2459C23.254 38.4877 25.6386 37.5 28.125 37.5H46.875L56.25 23.4375H93.75L103.125 37.5H121.875C124.361 37.5 126.746 38.4877 128.504 40.2459C130.262 42.004 131.25 44.3886 131.25 46.875V112.5C131.25 114.986 130.262 117.371 128.504 119.129C126.746 120.887 124.361 121.875 121.875 121.875Z" stroke="#443A52" stroke-width="4" stroke-linecap="round" stroke-linejoin="round"/>
<path d="M75 98.4375C86.6498 98.4375 96.0938 88.9935 96.0938 77.3438C96.0938 65.694 86.6498 56.25 75 56.25C63.3502 56.25 53.9062 65.694 53.9062 77.3438C53.9062 88.9935 63.3502 98.4375 75 98.4375Z" stroke="#443A52" stroke-width="4" stroke-linecap="round" stroke-linejoin="round"/>
</svg>
