<svg width="14" height="11" viewBox="0 0 14 11" fill="none" xmlns="http://www.w3.org/2000/svg">
<path d="M7.44403 2.09572L8.817 4.33668L11.898 4.69812L9.66691 6.44621L10.1899 8.91061L7.43587 7.74742L4.6818 8.91061L5.20481 6.44621L2.97378 4.69812L6.05474 4.33668L7.42769 2.09572M7.44403 0.419922C6.65131 0.419922 5.92399 0.781368 5.57258 1.35311L4.6818 2.80546L2.68774 3.03548C1.9032 3.12748 1.24941 3.56779 1.00424 4.17896C0.759072 4.79013 0.963376 5.45388 1.53544 5.90075L2.97378 7.0311L2.63053 8.62803C2.49977 9.25891 2.81849 9.89637 3.4641 10.271C3.83186 10.4813 4.25682 10.593 4.68995 10.593C5.02502 10.593 5.36009 10.5273 5.66246 10.4024L7.44403 9.64665L9.22562 10.4024C9.52799 10.5338 9.86306 10.593 10.1981 10.593C10.6313 10.593 11.0644 10.4878 11.424 10.271C12.0696 9.89637 12.3883 9.25891 12.2576 8.62803L11.9143 7.0311L13.3526 5.90075C13.9247 5.45388 14.129 4.79013 13.8838 4.17896C13.6387 3.56779 12.9849 3.12748 12.2003 3.03548L10.2063 2.80546L9.3155 1.35311C8.96409 0.781368 8.23674 0.419922 7.44403 0.419922Z" fill="#443A52"/>
</svg>
