<svg width="267" height="69" viewBox="0 0 267 69" fill="none" xmlns="http://www.w3.org/2000/svg">
<g clip-path="url(#clip0_398_11696)">
<path d="M123.1 34.7201C123.1 37.7201 124.06 40.5201 126.71 42.6701C128.552 44.1395 130.855 44.9083 133.21 44.8401V49.1801H137.55H128.88M133.22 44.8401C135.57 44.8401 137.64 44.3601 139.72 42.6701C140.891 41.7106 141.826 40.4945 142.452 39.116C143.078 37.7374 143.378 36.2333 143.33 34.7201M133.22 19.8201C131.77 19.8201 130.72 20.1901 129.92 20.7501C129.098 21.3662 128.462 22.1965 128.08 23.1501C127.18 25.2101 126.98 27.9201 126.98 30.3901C126.98 32.8501 127.18 35.5601 128.08 37.6301C128.462 38.5837 129.098 39.414 129.92 40.0301C130.72 40.5801 131.77 40.9501 133.22 40.9501C134.66 40.9501 135.72 40.5801 136.51 40.0201C137.332 39.404 137.968 38.5737 138.35 37.6201C139.25 35.5601 139.45 32.8501 139.45 30.3901C139.45 27.9201 139.25 25.2101 138.35 23.1501C137.968 22.1965 137.332 21.3662 136.51 20.7501C135.537 20.0977 134.381 19.772 133.21 19.8201H133.22Z" stroke="white" stroke-width="3" stroke-linecap="round" stroke-linejoin="round"/>
</g>
<path d="M153.54 31.3877C152.193 31.3877 151.1 32.0059 151.1 32.7677V36.2322C151.1 36.9939 152.193 37.6122 153.54 37.6122C154.887 37.6122 155.98 36.9939 155.98 36.2322V32.7677C155.98 32.0052 154.887 31.3877 153.54 31.3877Z" fill="white"/>
<path d="M160.534 28.3613C159.187 28.3613 158.094 28.9796 158.094 29.7413V39.2599C158.094 40.0216 159.187 40.6399 160.534 40.6399C161.881 40.6399 162.974 40.0216 162.974 39.2599V29.7413C162.974 28.9789 161.882 28.3613 160.534 28.3613Z" fill="white"/>
<path d="M167.53 30.4756C166.183 30.4756 165.09 31.0938 165.09 31.8556V37.1458C165.09 37.9076 166.183 38.5258 167.53 38.5258C168.877 38.5258 169.97 37.9076 169.97 37.1458V31.8556C169.97 31.0931 168.877 30.4756 167.53 30.4756Z" fill="white"/>
<path d="M174.524 23.8047C173.177 23.8047 172.084 24.4229 172.084 25.1847V43.8147C172.084 44.5764 173.177 45.1947 174.524 45.1947C175.871 45.1947 176.964 44.5764 176.964 43.8147V25.1847C176.964 24.4229 175.872 23.8047 174.524 23.8047Z" fill="white"/>
<path d="M181.518 19.5498C180.171 19.5498 179.078 20.168 179.078 20.9298V48.0696C179.078 48.8313 180.171 49.4496 181.518 49.4496C182.865 49.4496 183.958 48.8313 183.958 48.0696V20.9298C183.958 20.168 182.866 19.5498 181.518 19.5498Z" fill="white"/>
<path d="M188.514 14.041C187.167 14.041 186.074 14.6593 186.074 15.421V53.5801C186.074 54.3418 187.167 54.9601 188.514 54.9601C189.861 54.9601 190.954 54.3418 190.954 53.5801V15.421C190.954 14.6586 189.861 14.041 188.514 14.041Z" fill="white"/>
<path d="M195.508 9.43066C194.161 9.43066 193.068 10.0489 193.068 10.8107V58.1909C193.068 58.9527 194.161 59.5709 195.508 59.5709C196.855 59.5709 197.948 58.9527 197.948 58.1909V10.8107C197.948 10.0482 196.855 9.43066 195.508 9.43066Z" fill="white"/>
<path d="M202.502 14.2598C201.155 14.2598 200.062 14.878 200.062 15.6398V53.36C200.062 54.1218 201.155 54.74 202.502 54.74C203.849 54.74 204.942 54.1218 204.942 53.36V15.6398C204.942 14.8773 203.85 14.2598 202.502 14.2598Z" fill="white"/>
<path d="M209.498 21.1025C208.151 21.1025 207.058 21.7208 207.058 22.4825V46.5187C207.058 47.2804 208.151 47.8987 209.498 47.8987C210.845 47.8987 211.938 47.2804 211.938 46.5187V22.4825C211.938 21.7201 210.845 21.1025 209.498 21.1025Z" fill="white"/>
<path d="M216.492 27.8301C215.145 27.8301 214.052 28.4483 214.052 29.2101V39.7898C214.052 40.5516 215.145 41.1698 216.492 41.1698C217.839 41.1698 218.932 40.5516 218.932 39.7898V29.2101C218.932 28.4483 217.84 27.8301 216.492 27.8301Z" fill="white"/>
<path d="M223.486 22.8594C222.139 22.8594 221.046 23.4776 221.046 24.2394V44.7607C221.046 45.5224 222.139 46.1407 223.486 46.1407C224.833 46.1407 225.926 45.5224 225.926 44.7607V24.2394C225.926 23.4776 224.834 22.8594 223.486 22.8594Z" fill="white"/>
<path d="M230.482 27.001C229.135 27.001 228.042 27.6192 228.042 28.381V40.6181C228.042 41.3799 229.135 41.9981 230.482 41.9981C231.829 41.9981 232.922 41.3799 232.922 40.6181V28.381C232.922 27.6192 231.829 27.001 230.482 27.001Z" fill="white"/>
<path d="M237.476 29.6699C236.129 29.6699 235.036 30.2882 235.036 31.0499V37.9499C235.036 38.7117 236.129 39.3299 237.476 39.3299C238.823 39.3299 239.916 38.7117 239.916 37.9499V31.0499C239.916 30.2882 238.823 29.6699 237.476 29.6699Z" fill="white"/>
<path d="M244.47 28.4521C243.123 28.4521 242.03 29.0704 242.03 29.8321V39.1678C242.03 39.9296 243.123 40.5478 244.47 40.5478C245.817 40.5478 246.91 39.9296 246.91 39.1678V29.8321C246.91 29.0697 245.818 28.4521 244.47 28.4521Z" fill="white"/>
<path d="M251.466 31.3877C250.119 31.3877 249.026 32.0059 249.026 32.7677V36.2322C249.026 36.9939 250.119 37.6122 251.466 37.6122C252.813 37.6122 253.906 36.9939 253.906 36.2322V32.7677C253.906 32.0052 252.813 31.3877 251.466 31.3877Z" fill="white"/>
<path d="M258.46 32.085C257.113 32.085 256.02 32.7032 256.02 33.465V35.535C256.02 36.2967 257.113 36.915 258.46 36.915C259.807 36.915 260.9 36.2967 260.9 35.535V33.465C260.9 32.7032 259.807 32.085 258.46 32.085Z" fill="white"/>
<path d="M113.46 31.3877C114.807 31.3877 115.9 32.0059 115.9 32.7677V36.2322C115.9 36.9939 114.807 37.6122 113.46 37.6122C112.113 37.6122 111.02 36.9939 111.02 36.2322V32.7677C111.02 32.0052 112.113 31.3877 113.46 31.3877Z" fill="white"/>
<path d="M106.466 28.3613C107.813 28.3613 108.906 28.9796 108.906 29.7413V39.2599C108.906 40.0216 107.813 40.6399 106.466 40.6399C105.119 40.6399 104.026 40.0216 104.026 39.2599V29.7413C104.026 28.9789 105.118 28.3613 106.466 28.3613Z" fill="white"/>
<path d="M99.4703 30.4756C100.817 30.4756 101.91 31.0938 101.91 31.8556V37.1458C101.91 37.9076 100.817 38.5258 99.4703 38.5258C98.1234 38.5258 97.0303 37.9076 97.0303 37.1458V31.8556C97.0303 31.0931 98.1234 30.4756 99.4703 30.4756Z" fill="white"/>
<path d="M92.476 23.8047C93.8229 23.8047 94.916 24.4229 94.916 25.1847V43.8147C94.916 44.5764 93.8229 45.1947 92.476 45.1947C91.1291 45.1947 90.036 44.5764 90.036 43.8147V25.1847C90.036 24.4229 91.1279 23.8047 92.476 23.8047Z" fill="white"/>
<path d="M85.4818 19.5498C86.8286 19.5498 87.9218 20.168 87.9218 20.9298V48.0696C87.9218 48.8313 86.8286 49.4496 85.4818 49.4496C84.1349 49.4496 83.0418 48.8313 83.0418 48.0696V20.9298C83.0418 20.168 84.1337 19.5498 85.4818 19.5498Z" fill="white"/>
<path d="M78.4863 14.041C79.8331 14.041 80.9263 14.6593 80.9263 15.421V53.5801C80.9263 54.3418 79.8331 54.9601 78.4863 54.9601C77.1394 54.9601 76.0463 54.3418 76.0463 53.5801V15.421C76.0463 14.6586 77.1394 14.041 78.4863 14.041Z" fill="white"/>
<path d="M71.492 9.43066C72.8389 9.43066 73.932 10.0489 73.932 10.8107V58.1909C73.932 58.9527 72.8389 59.5709 71.492 59.5709C70.1451 59.5709 69.052 58.9527 69.052 58.1909V10.8107C69.052 10.0482 70.1451 9.43066 71.492 9.43066Z" fill="white"/>
<path d="M64.4977 14.2598C65.8446 14.2598 66.9377 14.878 66.9377 15.6398V53.36C66.9377 54.1218 65.8446 54.74 64.4977 54.74C63.1509 54.74 62.0577 54.1218 62.0577 53.36V15.6398C62.0577 14.8773 63.1496 14.2598 64.4977 14.2598Z" fill="white"/>
<path d="M57.5023 21.1025C58.8491 21.1025 59.9423 21.7208 59.9423 22.4825V46.5187C59.9423 47.2804 58.8491 47.8987 57.5023 47.8987C56.1554 47.8987 55.0623 47.2804 55.0623 46.5187V22.4825C55.0623 21.7201 56.1554 21.1025 57.5023 21.1025Z" fill="white"/>
<path d="M50.508 27.8301C51.8549 27.8301 52.948 28.4483 52.948 29.2101V39.7898C52.948 40.5516 51.8549 41.1698 50.508 41.1698C49.1611 41.1698 48.068 40.5516 48.068 39.7898V29.2101C48.068 28.4483 49.1599 27.8301 50.508 27.8301Z" fill="white"/>
<path d="M43.5137 22.8594C44.8606 22.8594 45.9537 23.4776 45.9537 24.2394V44.7607C45.9537 45.5224 44.8606 46.1407 43.5137 46.1407C42.1669 46.1407 41.0737 45.5224 41.0737 44.7607V24.2394C41.0737 23.4776 42.1656 22.8594 43.5137 22.8594Z" fill="white"/>
<path d="M36.5183 27.001C37.8651 27.001 38.9583 27.6192 38.9583 28.381V40.6181C38.9583 41.3799 37.8651 41.9981 36.5183 41.9981C35.1714 41.9981 34.0783 41.3799 34.0783 40.6181V28.381C34.0783 27.6192 35.1714 27.001 36.5183 27.001Z" fill="white"/>
<path d="M29.524 29.6699C30.8709 29.6699 31.964 30.2882 31.964 31.0499V37.9499C31.964 38.7117 30.8709 39.3299 29.524 39.3299C28.1771 39.3299 27.084 38.7117 27.084 37.9499V31.0499C27.084 30.2882 28.1771 29.6699 29.524 29.6699Z" fill="white"/>
<path d="M22.5297 28.4521C23.8766 28.4521 24.9697 29.0704 24.9697 29.8321V39.1678C24.9697 39.9296 23.8766 40.5478 22.5297 40.5478C21.1828 40.5478 20.0897 39.9296 20.0897 39.1678V29.8321C20.0897 29.0697 21.1816 28.4521 22.5297 28.4521Z" fill="white"/>
<path d="M15.5342 31.3877C16.8811 31.3877 17.9742 32.0059 17.9742 32.7677V36.2322C17.9742 36.9939 16.8811 37.6122 15.5342 37.6122C14.1874 37.6122 13.0942 36.9939 13.0942 36.2322V32.7677C13.0942 32.0052 14.1874 31.3877 15.5342 31.3877Z" fill="white"/>
<path d="M8.53998 32.085C9.88686 32.085 10.98 32.7032 10.98 33.465V35.535C10.98 36.2967 9.88686 36.915 8.53998 36.915C7.1931 36.915 6.09998 36.2967 6.09998 35.535V33.465C6.09998 32.7032 7.1931 32.085 8.53998 32.085Z" fill="white"/>
<defs>
<clipPath id="clip0_398_11696">
<rect width="23" height="33" fill="white" transform="translate(122 18)"/>
</clipPath>
</defs>
</svg>
