<svg width="36" height="36" viewBox="0 0 36 36" fill="none" xmlns="http://www.w3.org/2000/svg">
<circle cx="18" cy="18" r="18" fill="#FFB4D4"/>
<g clip-path="url(#clip0_398_11484)">
<path d="M10.7653 18.1464C10.7653 20.1464 11.4331 22.0131 13.2766 23.4464C14.5578 24.426 16.1599 24.9386 17.7983 24.8931V27.7864H20.8174H14.7861M17.8053 24.8931C19.44 24.8931 20.88 24.5731 22.327 23.4464C23.1417 22.8067 23.792 21.996 24.2274 21.077C24.6629 20.158 24.8719 19.1552 24.8383 18.1464M17.8053 8.21307C16.7966 8.21307 16.0661 8.45973 15.5096 8.83307C14.9379 9.24381 14.4951 9.79733 14.2296 10.4331C13.6035 11.8064 13.4644 13.6131 13.4644 15.2597C13.4644 16.8997 13.6035 18.7064 14.2296 20.0864C14.4951 20.7221 14.9379 21.2757 15.5096 21.6864C16.0661 22.0531 16.7966 22.2997 17.8053 22.2997C18.807 22.2997 19.5444 22.0531 20.094 21.6797C20.6657 21.269 21.1085 20.7155 21.374 20.0797C22 18.7064 22.1392 16.8997 22.1392 15.2597C22.1392 13.6131 22 11.8064 21.374 10.4331C21.1085 9.79733 20.6657 9.24381 20.094 8.83307C19.4168 8.39813 18.6128 8.18098 17.7983 8.21307H17.8053Z" stroke="white" stroke-width="2" stroke-linecap="round" stroke-linejoin="round"/>
</g>
<defs>
<clipPath id="clip0_398_11484">
<rect width="16" height="22" fill="white" transform="translate(10 7)"/>
</clipPath>
</defs>
</svg>
