<svg width="36" height="36" viewBox="0 0 36 36" fill="none" xmlns="http://www.w3.org/2000/svg">
<circle cx="18" cy="18" r="18" fill="#FFB4D4"/>
<path d="M24.4514 11.4734L9.71683 15.6234C9.5914 15.6577 9.47959 15.7298 9.39664 15.8299C9.31368 15.9301 9.2636 16.0533 9.25324 16.183C9.24287 16.3126 9.27271 16.4422 9.33869 16.5543C9.40467 16.6663 9.50359 16.7553 9.62197 16.8091L16.3885 20.0106C16.5211 20.072 16.6275 20.1784 16.6889 20.311L19.8903 27.0775C19.9441 27.1959 20.0331 27.2948 20.1452 27.3608C20.2572 27.4268 20.3869 27.4566 20.5165 27.4462C20.6461 27.4359 20.7694 27.3858 20.8695 27.3028C20.9697 27.2199 21.0418 27.1081 21.0761 26.9826L25.2261 12.248C25.2576 12.1405 25.2595 12.0265 25.2317 11.918C25.204 11.8094 25.1475 11.7104 25.0683 11.6311C24.9891 11.5519 24.89 11.4955 24.7815 11.4677C24.673 11.44 24.559 11.4419 24.4514 11.4734V11.4734Z" fill="white" stroke="white" stroke-width="2" stroke-linecap="round" stroke-linejoin="round"/>
</svg>
