<svg width="36" height="36" viewBox="0 0 36 36" fill="none" xmlns="http://www.w3.org/2000/svg">
<circle cx="18" cy="18" r="18" fill="#FFB4D4"/>
<path d="M26.0095 17.4343L14.0168 10.1003C13.9158 10.038 13.8001 10.0038 13.6815 10.0011C13.5629 9.99852 13.4457 10.0276 13.3421 10.0853C13.2385 10.1431 13.1522 10.2274 13.092 10.3297C13.0319 10.4319 13.0001 10.5484 13 10.667V25.335C13.0001 25.4536 13.0319 25.57 13.092 25.6723C13.1522 25.7745 13.2385 25.8589 13.3421 25.9166C13.4457 25.9744 13.5629 26.0034 13.6815 26.0008C13.8001 25.9982 13.9158 25.964 14.0168 25.9017L26.0095 18.5677C26.108 18.5095 26.1896 18.4266 26.2463 18.3272C26.303 18.2278 26.3328 18.1154 26.3328 18.001C26.3328 17.8866 26.303 17.7741 26.2463 17.6748C26.1896 17.5754 26.108 17.4925 26.0095 17.4343V17.4343Z" fill="white" stroke="white" stroke-width="2" stroke-linecap="round" stroke-linejoin="round"/>
</svg>
