<svg width="36" height="36" viewBox="0 0 36 36" fill="none" xmlns="http://www.w3.org/2000/svg">
<circle cx="18" cy="18" r="18" fill="#FFB4D4"/>
<path d="M14 16H9V11" stroke="white" stroke-width="3" stroke-linecap="round" stroke-linejoin="round"/>
<path d="M12.9525 23.6545C14.021 24.774 15.3826 25.5366 16.8651 25.8458C18.3476 26.155 19.8845 25.997 21.2812 25.3917C22.6779 24.7863 23.8717 23.761 24.7117 22.4452C25.5517 21.1295 26 19.5825 26 18C26 16.4175 25.5517 14.8705 24.7117 13.5548C23.8717 12.239 22.6779 11.2137 21.2812 10.6083C19.8845 10.003 18.3476 9.84499 16.8651 10.1542C15.3826 10.4634 14.021 11.226 12.9525 12.3455L10 15.4273" stroke="white" stroke-width="3" stroke-linecap="round" stroke-linejoin="round"/>
</svg>
