<svg width="48" height="49" viewBox="0 0 48 49" fill="none" xmlns="http://www.w3.org/2000/svg">
<path d="M33 20.6808V21.6808H34H35V23.6808H34H33V24.6808V25.6808H32H31V26.6808V27.6808H30H29V28.6808V29.6808H28H27V30.6808V31.6808H26H25V32.6808V33.6808H24H23V34.6808V35.6808H22H21V36.6808V37.6808H20H19V38.6808V39.6808H18H17V40.6808V41.6808H16H15V42.6808V43.6808H14H13V44.6808V45.6808H3V35.6808H4H5V34.6808V33.6808H6H7V32.6808V31.6808H8H9V30.6808V29.6808H10H11V28.6808V27.6808H12H13V26.6808V25.6808H14H15V24.6808V23.6808H16H17V22.6808V21.6808H18H19V20.6808V19.6808H20H21V18.6808V17.6808H22H23V16.6808V15.6808H24H25V14.6808V13.6808H27V14.6808V15.6808H28H29V16.6808V17.6808H30H31V18.6808V19.6808H32H33V20.6808Z" fill="#FFC267" stroke="black" stroke-width="3"/>
<path d="M43 9.68079V10.6808V11.6808H44H45V13.6808H44H43V14.6808V15.6808H42H41V16.6808V17.6808H40H39H38H37V16.6808V15.6808H36H35V14.6808V13.6808H34H33V12.6808V11.6808H32H31V10.6808V9.68079V8.68079V7.68079H32H33V6.68079V5.68079H34H35V4.68079V3.68079H37V4.68079V5.68079H38H39V6.68079V7.68079H40H41V8.68079V9.68079H42H43Z" fill="#FFC267" stroke="black" stroke-width="3"/>
</svg>
